<?xml version="1.0" encoding="utf-8"?>
<!-- Generator: Adobe Illustrator 16.0.0, SVG Export Plug-In . SVG Version: 6.00 Build 0)  -->
<!DOCTYPE svg PUBLIC "-//W3C//DTD SVG 1.1//EN" "http://www.w3.org/Graphics/SVG/1.1/DTD/svg11.dtd">
<svg version="1.1" id="Layer_1" xmlns="http://www.w3.org/2000/svg" xmlns:xlink="http://www.w3.org/1999/xlink" x="0px" y="0px"
	 width="1000px" height="1000px" viewBox="0 0 1000 1000" enable-background="new 0 0 1000 1000" xml:space="preserve">
<g>
	<g>
		
			<linearGradient id="SVGID_1_" gradientUnits="userSpaceOnUse" x1="172.6982" y1="703.8203" x2="291.9854" y2="703.8203" gradientTransform="matrix(1 0 0 -1 194 1105)">
			<stop  offset="0" style="stop-color:#D41700"/>
			<stop  offset="1" style="stop-color:#FF6354"/>
		</linearGradient>
		<polygon fill="url(#SVGID_1_)" points="366.698,372.198 397.142,341.642 485.985,430.16 455.542,460.716 		"/>
	</g>
</g>
<g>
	<g>
		
			<linearGradient id="SVGID_2_" gradientUnits="userSpaceOnUse" x1="-81.0068" y1="667.5137" x2="110.6641" y2="667.5137" gradientTransform="matrix(1 0 0 -1 194 1105)">
			<stop  offset="0" style="stop-color:#D41700"/>
			<stop  offset="1" style="stop-color:#FF6354"/>
		</linearGradient>
		<polygon fill="url(#SVGID_2_)" points="112.993,502.823 274.165,341.651 304.664,372.15 143.492,533.322 		"/>
	</g>
</g>
<g>
	<g>
		
			<linearGradient id="SVGID_3_" gradientUnits="userSpaceOnUse" x1="345.2734" y1="818.4619" x2="692.9082" y2="818.4619" gradientTransform="matrix(1 0 0 -1 194 1105)">
			<stop  offset="0" style="stop-color:#D41700"/>
			<stop  offset="1" style="stop-color:#FF6354"/>
		</linearGradient>
		<polygon fill="url(#SVGID_3_)" points="539.273,430.169 856.379,112.437 886.908,142.905 569.804,460.639 		"/>
	</g>
</g>
<g>
	<g>
		
			<linearGradient id="SVGID_4_" gradientUnits="userSpaceOnUse" x1="638.1182" y1="1021.0576" x2="806.0029" y2="1021.0576" gradientTransform="matrix(1 0 0 -1 194 1105)">
			<stop  offset="0" style="stop-color:#D41700"/>
			<stop  offset="1" style="stop-color:#FF6354"/>
		</linearGradient>
		<path fill="url(#SVGID_4_)" d="M916.061,0c-46.448,0-83.942,37.491-83.942,83.943c0,46.452,37.491,83.942,83.942,83.942
			s83.942-37.491,83.942-83.942C1000,37.491,962.51,0,916.061,0z M916.061,124.752c-22.561,0-40.81-18.25-40.81-40.81
			c0-22.561,18.249-40.81,40.81-40.81c22.562,0,40.811,18.249,40.811,40.81C956.87,106.503,938.621,124.752,916.061,124.752z"/>
	</g>
</g>
<g>
	<g>
		
			<linearGradient id="SVGID_5_" gradientUnits="userSpaceOnUse" x1="-194" y1="542.624" x2="-26.1152" y2="542.624" gradientTransform="matrix(1 0 0 -1 194 1105)">
			<stop  offset="0" style="stop-color:#D41700"/>
			<stop  offset="1" style="stop-color:#FF6354"/>
		</linearGradient>
		<path fill="url(#SVGID_5_)" d="M83.943,478.434C37.491,478.434,0,515.928,0,562.376c0,46.449,37.491,83.942,83.943,83.942
			c46.452,0,83.942-37.49,83.942-83.942S130.392,478.434,83.943,478.434z M83.943,603.186c-22.561,0-40.81-18.249-40.81-40.81
			s18.249-40.81,40.81-40.81c22.56,0,40.81,18.249,40.81,40.81S106.503,603.186,83.943,603.186z"/>
	</g>
</g>
<g>
	<g>
		
			<linearGradient id="SVGID_6_" gradientUnits="userSpaceOnUse" x1="55.501" y1="792.125" x2="223.3857" y2="792.125" gradientTransform="matrix(1 0 0 -1 194 1105)">
			<stop  offset="0" style="stop-color:#D41700"/>
			<stop  offset="1" style="stop-color:#FF6354"/>
		</linearGradient>
		<path fill="url(#SVGID_6_)" d="M333.444,228.932c-46.449,0-83.943,37.491-83.943,83.943c0,46.449,37.491,83.943,83.943,83.943
			c46.448,0,83.941-37.491,83.941-83.943C417.387,266.423,379.895,228.932,333.444,228.932z M333.444,353.684
			c-22.562,0-40.811-18.249-40.811-40.81c0-22.56,18.249-40.81,40.811-40.81c22.561,0,40.81,18.25,40.81,40.81
			C374.254,335.435,356.005,353.684,333.444,353.684z"/>
	</g>
</g>
<g>
	<g>
		
			<linearGradient id="SVGID_7_" gradientUnits="userSpaceOnUse" x1="232.3418" y1="615.2852" x2="400.2266" y2="615.2852" gradientTransform="matrix(1 0 0 -1 194 1105)">
			<stop  offset="0" style="stop-color:#D41700"/>
			<stop  offset="1" style="stop-color:#FF6354"/>
		</linearGradient>
		<path fill="url(#SVGID_7_)" d="M510.285,405.772c-46.449,0-83.943,37.489-83.943,83.941c0,46.449,37.491,83.943,83.943,83.943
			c46.451,0,83.941-37.491,83.941-83.943C594.229,443.267,556.736,405.772,510.285,405.772z M510.285,530.524
			c-22.562,0-40.811-18.249-40.811-40.811c0-22.56,18.249-40.81,40.811-40.81c22.56,0,40.81,18.25,40.81,40.81
			C551.095,512.275,532.849,530.524,510.285,530.524z"/>
	</g>
</g>
<g>
	<g>
		
			<linearGradient id="SVGID_8_" gradientUnits="userSpaceOnUse" x1="700.4922" y1="438.6089" x2="743.625" y2="438.6089" gradientTransform="matrix(1 0 0 -1 194 1105)">
			<stop  offset="0" style="stop-color:#D41700"/>
			<stop  offset="1" style="stop-color:#FF6354"/>
		</linearGradient>
		<rect x="894.492" y="354.347" fill="url(#SVGID_8_)" width="43.133" height="624.087"/>
	</g>
</g>
<g>
	<g>
		
			<linearGradient id="SVGID_9_" gradientUnits="userSpaceOnUse" x1="305.3359" y1="282.5044" x2="348.4688" y2="282.5044" gradientTransform="matrix(1 0 0 -1 194 1105)">
			<stop  offset="0" style="stop-color:#D41700"/>
			<stop  offset="1" style="stop-color:#FF6354"/>
		</linearGradient>
		<rect x="499.336" y="666.556" fill="url(#SVGID_9_)" width="43.133" height="311.88"/>
	</g>
</g>
<g>
	<g>
		
			<linearGradient id="SVGID_10_" gradientUnits="userSpaceOnUse" x1="-131.625" y1="251.3154" x2="-88.4922" y2="251.3154" gradientTransform="matrix(1 0 0 -1 194 1105)">
			<stop  offset="0" style="stop-color:#D41700"/>
			<stop  offset="1" style="stop-color:#FF6354"/>
		</linearGradient>
		<rect x="62.375" y="728.934" fill="url(#SVGID_10_)" width="43.133" height="249.502"/>
	</g>
</g>
<g>
	<g>
		
			<linearGradient id="SVGID_11_" gradientUnits="userSpaceOnUse" x1="117.8789" y1="345.0459" x2="161.0127" y2="345.0459" gradientTransform="matrix(1 0 0 -1 194 1105)">
			<stop  offset="0" style="stop-color:#D41700"/>
			<stop  offset="1" style="stop-color:#FF6354"/>
		</linearGradient>
		<rect x="311.879" y="541.474" fill="url(#SVGID_11_)" width="43.134" height="436.961"/>
	</g>
</g>
<g>
	<g>
		
			<linearGradient id="SVGID_12_" gradientUnits="userSpaceOnUse" x1="-193.3369" y1="126.5635" x2="805.3379" y2="126.5635" gradientTransform="matrix(1 0 0 -1 194 1105)">
			<stop  offset="0" style="stop-color:#D41700"/>
			<stop  offset="1" style="stop-color:#FF6354"/>
		</linearGradient>
		<rect x="0.663" y="956.87" fill="url(#SVGID_12_)" width="998.675" height="43.133"/>
	</g>
</g>
</svg>
