<?xml version="1.0" encoding="utf-8"?>
<!-- Generator: Adobe Illustrator 16.0.0, SVG Export Plug-In . SVG Version: 6.00 Build 0)  -->
<!DOCTYPE svg PUBLIC "-//W3C//DTD SVG 1.1//EN" "http://www.w3.org/Graphics/SVG/1.1/DTD/svg11.dtd">
<svg version="1.1" id="Capa_1" xmlns="http://www.w3.org/2000/svg" xmlns:xlink="http://www.w3.org/1999/xlink" x="0px" y="0px"
	 width="1000px" height="1000px" viewBox="0 0 1000 1000" enable-background="new 0 0 1000 1000" xml:space="preserve">
<g>
	<g>
		<g>
			<linearGradient id="SVGID_1_" gradientUnits="userSpaceOnUse" x1="83.3315" y1="500" x2="916.6689" y2="500">
				<stop  offset="0" style="stop-color:#D41700"/>
				<stop  offset="0.9839" style="stop-color:#FF6354"/>
			</linearGradient>
			<path fill="url(#SVGID_1_)" d="M900,583.333H783.333V16.667C783.333,7.462,775.871,0,766.667,0H233.333
				c-9.204,0-16.667,7.462-16.667,16.667v566.667H100c-4.544,0-8.892,1.854-12.035,5.136c-6.369,6.646-6.144,17.195,0.502,23.564
				l400,383.333c3.104,2.974,7.235,4.634,11.533,4.634s8.432-1.66,11.533-4.634l400-383.333c3.281-3.144,5.136-7.491,5.136-12.035
				C916.667,590.794,909.204,583.333,900,583.333z M500,960.25L141.467,616.667h91.867c9.204,0,16.667-7.463,16.667-16.667V33.333
				h500V600c0,9.204,7.463,16.667,16.667,16.667h91.866L500,960.25z"/>
			<linearGradient id="SVGID_2_" gradientUnits="userSpaceOnUse" x1="400" y1="400" x2="600" y2="400">
				<stop  offset="0" style="stop-color:#D41700"/>
				<stop  offset="0.9839" style="stop-color:#FF6354"/>
			</linearGradient>
			<path fill="url(#SVGID_2_)" d="M500,250c36.818,0,66.667,29.848,66.667,66.667H600c-0.09-48.744-35.279-90.335-83.333-98.5
				v-34.833h-33.334v34.833c-54.399,9.525-90.781,61.346-81.256,115.748c8.34,47.631,49.566,82.473,97.923,82.752
				c36.818,0,66.667,29.848,66.667,66.666C566.667,520.152,536.818,550,500,550s-66.667-29.848-66.667-66.667H400
				c0.09,48.744,35.279,90.336,83.333,98.5v34.834h33.334v-34.834c54.399-9.524,90.781-61.346,81.256-115.748
				c-8.34-47.631-49.566-82.473-97.923-82.751c-36.818,0-66.667-29.848-66.667-66.667S463.182,250,500,250z"/>
			<linearGradient id="SVGID_3_" gradientUnits="userSpaceOnUse" x1="283.3335" y1="83.333" x2="316.667" y2="83.333">
				<stop  offset="0" style="stop-color:#D41700"/>
				<stop  offset="0.9839" style="stop-color:#FF6354"/>
			</linearGradient>
			<rect x="283.333" y="66.667" fill="url(#SVGID_3_)" width="33.333" height="33.333"/>
			<linearGradient id="SVGID_4_" gradientUnits="userSpaceOnUse" x1="350" y1="83.333" x2="383.333" y2="83.333">
				<stop  offset="0" style="stop-color:#D41700"/>
				<stop  offset="0.9839" style="stop-color:#FF6354"/>
			</linearGradient>
			<rect x="350" y="66.667" fill="url(#SVGID_4_)" width="33.333" height="33.333"/>
			<linearGradient id="SVGID_5_" gradientUnits="userSpaceOnUse" x1="416.667" y1="83.333" x2="450" y2="83.333">
				<stop  offset="0" style="stop-color:#D41700"/>
				<stop  offset="0.9839" style="stop-color:#FF6354"/>
			</linearGradient>
			<rect x="416.667" y="66.667" fill="url(#SVGID_5_)" width="33.333" height="33.333"/>
			<linearGradient id="SVGID_6_" gradientUnits="userSpaceOnUse" x1="483.333" y1="83.333" x2="516.667" y2="83.333">
				<stop  offset="0" style="stop-color:#D41700"/>
				<stop  offset="0.9839" style="stop-color:#FF6354"/>
			</linearGradient>
			<rect x="483.333" y="66.667" fill="url(#SVGID_6_)" width="33.334" height="33.333"/>
			<linearGradient id="SVGID_7_" gradientUnits="userSpaceOnUse" x1="550" y1="83.333" x2="583.333" y2="83.333">
				<stop  offset="0" style="stop-color:#D41700"/>
				<stop  offset="0.9839" style="stop-color:#FF6354"/>
			</linearGradient>
			<rect x="550" y="66.667" fill="url(#SVGID_7_)" width="33.333" height="33.333"/>
			<linearGradient id="SVGID_8_" gradientUnits="userSpaceOnUse" x1="616.667" y1="83.333" x2="650" y2="83.333">
				<stop  offset="0" style="stop-color:#D41700"/>
				<stop  offset="0.9839" style="stop-color:#FF6354"/>
			</linearGradient>
			<rect x="616.667" y="66.667" fill="url(#SVGID_8_)" width="33.333" height="33.333"/>
			<linearGradient id="SVGID_9_" gradientUnits="userSpaceOnUse" x1="683.333" y1="83.333" x2="716.667" y2="83.333">
				<stop  offset="0" style="stop-color:#D41700"/>
				<stop  offset="0.9839" style="stop-color:#FF6354"/>
			</linearGradient>
			<rect x="683.333" y="66.667" fill="url(#SVGID_9_)" width="33.334" height="33.333"/>
		</g>
	</g>
</g>
</svg>
