<?xml version="1.0" encoding="utf-8"?>
<!-- Generator: Adobe Illustrator 16.0.0, SVG Export Plug-In . SVG Version: 6.00 Build 0)  -->
<!DOCTYPE svg PUBLIC "-//W3C//DTD SVG 1.1//EN" "http://www.w3.org/Graphics/SVG/1.1/DTD/svg11.dtd">
<svg version="1.1" id="Icons" xmlns="http://www.w3.org/2000/svg" xmlns:xlink="http://www.w3.org/1999/xlink" x="0px" y="0px"
	 width="512px" height="512px" viewBox="0 0 512 512" enable-background="new 0 0 512 512" xml:space="preserve">
<linearGradient id="SVGID_1_" gradientUnits="userSpaceOnUse" x1="15.0898" y1="272.9199" x2="134.6484" y2="272.9199">
	<stop  offset="0" style="stop-color:#D41700"/>
	<stop  offset="1" style="stop-color:#FF6354"/>
</linearGradient>
<path fill="url(#SVGID_1_)" d="M98.74,341.934c-0.252-0.001-0.503-0.015-0.754-0.042c-0.381-0.034-0.748,0-1.121,0H22.002
	c-3.821-0.004-6.916-3.104-6.912-6.926c0-0.229,0.012-0.458,0.035-0.685c4.747-46.855,23.12-91.293,52.847-127.821
	c1.234-1.519,3.054-2.444,5.009-2.546c1.956-0.098,3.862,0.633,5.251,2.013L131.3,258.92l1.314,1.245
	c2.422,2.415,2.716,6.237,0.692,8.995c-14.498,19.732-24.008,42.681-27.717,66.885C105.079,339.433,102.166,341.938,98.74,341.934z
	 M29.793,328.025h63.121c4.25-22.26,13.017-43.412,25.759-62.152L73.97,221.226C50.279,252.419,35.061,289.211,29.793,328.025
	L29.793,328.025z"/>
<linearGradient id="SVGID_2_" gradientUnits="userSpaceOnUse" x1="100.7422" y1="178.0381" x2="238.7603" y2="178.0381">
	<stop  offset="0" style="stop-color:#D41700"/>
	<stop  offset="1" style="stop-color:#FF6354"/>
</linearGradient>
<path fill="url(#SVGID_2_)" d="M161.903,237.803c-1.835,0-3.595-0.729-4.892-2.027l-0.789-0.83l-53.456-53.56
	c-2.701-2.703-2.699-7.084,0.005-9.785c0.167-0.167,0.344-0.326,0.528-0.476c36.526-29.706,80.952-48.065,127.792-52.812
	c1.95-0.214,3.896,0.424,5.341,1.75c1.453,1.312,2.283,3.177,2.284,5.134v74.828c-0.021,0.375-0.021,0.752,0,1.128
	c0.413,3.693-2.165,7.054-5.84,7.611c-24.204,3.709-47.152,13.219-66.885,27.717C164.804,237.345,163.372,237.808,161.903,237.803
	L161.903,237.803z M118.064,177.125l44.648,44.703c18.742-12.738,39.894-21.502,62.152-25.752v-63.121
	C186.051,138.218,149.258,153.435,118.064,177.125L118.064,177.125z"/>
<linearGradient id="SVGID_3_" gradientUnits="userSpaceOnUse" x1="273.2266" y1="178.0361" x2="411.2783" y2="178.0361">
	<stop  offset="0" style="stop-color:#D41700"/>
	<stop  offset="1" style="stop-color:#FF6354"/>
</linearGradient>
<path fill="url(#SVGID_3_)" d="M350.098,237.803c-1.48-0.01-2.919-0.496-4.104-1.384c-6.028-4.457-12.402-8.427-19.062-11.873
	c-3.768-2.059-7.641-3.92-11.603-5.577c-9.495-4.039-19.385-7.079-29.51-9.07c-2.262-0.484-4.469-0.872-6.677-1.197
	c-3.688-0.54-6.286-3.905-5.874-7.611c0.021-0.375,0.021-0.752,0-1.127v-74.801c0.001-1.957,0.83-3.822,2.283-5.134
	c1.457-1.313,3.406-1.938,5.355-1.716c10.423,1.063,20.762,2.826,30.948,5.279c3.728,0.84,6.068,4.543,5.228,8.271
	c-0.84,3.728-4.543,6.068-8.271,5.228c-0.067-0.015-0.135-0.032-0.202-0.049c-7.064-1.702-14.26-3.058-21.449-4.055v63.122
	l1.434,0.291c11.018,2.175,21.781,5.486,32.117,9.88c4.346,1.808,8.593,3.845,12.724,6.103c5.481,2.835,10.784,6.003,15.879,9.486
	l44.627-44.745c-5.017-3.799-10.185-7.383-15.429-10.69c-3.233-2.039-4.201-6.312-2.162-9.545c2.038-3.232,6.312-4.201,9.544-2.162
	c7.93,5.008,15.555,10.483,22.833,16.398c2.963,2.414,3.408,6.771,0.994,9.734c-0.147,0.181-0.304,0.354-0.469,0.52l-54.244,54.39
	C353.709,237.074,351.94,237.807,350.098,237.803z"/>
<linearGradient id="SVGID_4_" gradientUnits="userSpaceOnUse" x1="334.2969" y1="142.4238" x2="360.334" y2="142.4238">
	<stop  offset="0" style="stop-color:#D41700"/>
	<stop  offset="1" style="stop-color:#FF6354"/>
</linearGradient>
<path fill="url(#SVGID_4_)" d="M353.418,151.87c-0.993,0.001-1.976-0.214-2.878-0.629c-4.407-2.014-8.171-3.57-11.859-4.906
	c-3.555-1.401-5.301-5.418-3.9-8.974c1.346-3.414,5.121-5.184,8.605-4.034c3.992,1.439,8.22,3.183,12.911,5.334
	c3.474,1.593,4.998,5.7,3.405,9.173C358.575,150.292,356.121,151.868,353.418,151.87z"/>
<linearGradient id="SVGID_5_" gradientUnits="userSpaceOnUse" x1="377.3652" y1="272.9092" x2="496.9238" y2="272.9092">
	<stop  offset="0" style="stop-color:#D41700"/>
	<stop  offset="1" style="stop-color:#FF6354"/>
</linearGradient>
<path fill="url(#SVGID_5_)" d="M413.26,341.934c-3.418-0.003-6.322-2.502-6.836-5.882c-3.706-24.212-13.215-47.167-27.717-66.905
	c-2.024-2.758-1.73-6.58,0.691-8.995l0.852-0.81l53.531-53.435c1.391-1.379,3.296-2.109,5.252-2.014
	c1.955,0.102,3.774,1.027,5.009,2.546c29.721,36.518,48.093,80.943,52.847,127.786c0.383,3.802-2.39,7.194-6.191,7.575
	c-0.229,0.023-0.457,0.035-0.686,0.035h-74.877c-0.373,0-0.747,0-1.12,0C413.765,341.882,413.513,341.914,413.26,341.934z
	 M419.086,328.025h63.121c-5.268-38.814-20.486-75.606-44.177-106.8l-44.703,44.647
	C406.069,284.613,414.836,305.766,419.086,328.025z"/>
<linearGradient id="SVGID_6_" gradientUnits="userSpaceOnUse" x1="221.4053" y1="359.1611" x2="290.5947" y2="359.1611">
	<stop  offset="0" style="stop-color:#D41700"/>
	<stop  offset="1" style="stop-color:#FF6354"/>
</linearGradient>
<path fill="url(#SVGID_6_)" d="M256,393.756c-19.106,0-34.595-15.488-34.595-34.595s15.489-34.595,34.595-34.595
	c19.105,0,34.595,15.488,34.595,34.595C290.572,378.258,275.097,393.732,256,393.756z M256,338.404
	c-11.464,0-20.757,9.293-20.757,20.757s9.293,20.757,20.757,20.757s20.757-9.293,20.757-20.757S267.464,338.404,256,338.404z"/>
<linearGradient id="SVGID_7_" gradientUnits="userSpaceOnUse" x1="255.9795" y1="297.3438" x2="304.4141" y2="297.3438">
	<stop  offset="0" style="stop-color:#D41700"/>
	<stop  offset="1" style="stop-color:#FF6354"/>
</linearGradient>
<path fill="url(#SVGID_7_)" d="M262.919,339.311c-3.821,0.012-6.928-3.076-6.939-6.898c-0.003-1.067,0.241-2.121,0.712-3.078
	l34.596-70.096c1.69-3.428,5.84-4.836,9.268-3.145s4.835,5.84,3.145,9.268l-34.595,70.089
	C267.943,337.807,265.547,339.303,262.919,339.311L262.919,339.311z"/>
</svg>
